<mxfile modified="2023-12-10T21:47:27.299Z" host="app.diagrams.net" agent="Mozilla/5.0 (Windows NT 10.0; Win64; x64; rv:120.0) Gecko/20100101 Firefox/120.0" etag="pUKwAygQwoLmCoOxFtmY" version="22.1.7" type="github">
  <diagram id="l8hXMBHkgcEJcSW0mbfh" name="Page-1">
    <mxGraphModel dx="1562" dy="826" grid="1" gridSize="10" guides="1" tooltips="1" connect="1" arrows="1" fold="1" page="1" pageScale="1" pageWidth="1169" pageHeight="827" math="0" shadow="0">
      <root>
        <mxCell id="0" />
        <mxCell id="1" parent="0" />
        <mxCell id="f0dRhQMgQy7w_mu_YljF-1" value="" style="ellipse;shape=cloud;whiteSpace=wrap;html=1;" vertex="1" parent="1">
          <mxGeometry x="130" y="90" width="120" height="80" as="geometry" />
        </mxCell>
        <mxCell id="f0dRhQMgQy7w_mu_YljF-2" value="" style="image;html=1;image=img/lib/clip_art/networking/Modem_128x128.png" vertex="1" parent="1">
          <mxGeometry x="230" y="211.5" width="80" height="80" as="geometry" />
        </mxCell>
        <mxCell id="f0dRhQMgQy7w_mu_YljF-4" style="edgeStyle=orthogonalEdgeStyle;rounded=0;orthogonalLoop=1;jettySize=auto;html=1;exitX=0;exitY=0.75;exitDx=0;exitDy=0;" edge="1" parent="1" source="f0dRhQMgQy7w_mu_YljF-3">
          <mxGeometry relative="1" as="geometry">
            <mxPoint x="80" y="230" as="targetPoint" />
          </mxGeometry>
        </mxCell>
        <mxCell id="f0dRhQMgQy7w_mu_YljF-3" value="" style="image;aspect=fixed;perimeter=ellipsePerimeter;html=1;align=center;shadow=0;dashed=0;spacingTop=3;image=img/lib/active_directory/modem.svg;" vertex="1" parent="1">
          <mxGeometry x="60" y="220" width="50" height="41.5" as="geometry" />
        </mxCell>
        <mxCell id="f0dRhQMgQy7w_mu_YljF-5" style="edgeStyle=orthogonalEdgeStyle;rounded=0;orthogonalLoop=1;jettySize=auto;html=1;exitX=0.5;exitY=0;exitDx=0;exitDy=0;entryX=0.13;entryY=0.77;entryDx=0;entryDy=0;entryPerimeter=0;" edge="1" parent="1" source="f0dRhQMgQy7w_mu_YljF-3" target="f0dRhQMgQy7w_mu_YljF-1">
          <mxGeometry relative="1" as="geometry" />
        </mxCell>
        <mxCell id="f0dRhQMgQy7w_mu_YljF-6" style="edgeStyle=orthogonalEdgeStyle;rounded=0;orthogonalLoop=1;jettySize=auto;html=1;exitX=0.5;exitY=0;exitDx=0;exitDy=0;entryX=0.96;entryY=0.7;entryDx=0;entryDy=0;entryPerimeter=0;" edge="1" parent="1" source="f0dRhQMgQy7w_mu_YljF-2" target="f0dRhQMgQy7w_mu_YljF-1">
          <mxGeometry relative="1" as="geometry" />
        </mxCell>
      </root>
    </mxGraphModel>
  </diagram>
</mxfile>
